<?xml version="1.0" encoding="utf-8"?>
<svg id="Layer_1" data-name="Layer 1" xmlns="http://www.w3.org/2000/svg" viewBox="0 0 556.86 139.43"><defs><style>.cls-1{fill:#333333;}</style></defs><title>starv_ikon2 </title><path class="cls-1" d="M447.13,95.65a32,32,0,0,1-.9-8.84v-.76c0-5.63,3.18-11.55,8.58-16.4a26.05,26.05,0,0,0-4.47-2.59c-3.49,4-8,6.74-13,6.74s-9.49-2.73-13-6.74c-6.62,3-10.92,8.06-10.92,12.62v.68c0,2.58-.1,6.9,3.33,10.38,3.73,3.78,10.66,5.7,20.59,5.7A54.64,54.64,0,0,0,447.13,95.65Z"/><path class="cls-1" d="M423.81,48.94a21.81,21.81,0,0,0,3,10.33,22.72,22.72,0,0,0,1.91,2.84,18,18,0,0,0,2.68,2.75,8.54,8.54,0,0,0,11.93,0A17.89,17.89,0,0,0,446,62.11a23.08,23.08,0,0,0,4.91-13.17,13.55,13.55,0,1,0-27.1,0Z"/><path class="cls-1" d="M555.42,80.36v-.68c0-4.56-4.3-9.59-10.92-12.62-3.5,4-8,6.74-13,6.74s-9.5-2.73-13-6.74a25.72,25.72,0,0,0-5,3c5.15,4.79,8.17,10.55,8.17,16v.76a32.29,32.29,0,0,1-.85,8.66,52.64,52.64,0,0,0,10.63,1c9.92,0,16.85-1.92,20.59-5.7C555.51,87.26,555.45,82.94,555.42,80.36Z"/><path class="cls-1" d="M517.94,48.94a23.15,23.15,0,0,0,4.92,13.17,17.89,17.89,0,0,0,2.67,2.75,8.54,8.54,0,0,0,11.93,0,18.42,18.42,0,0,0,2.68-2.75,23.86,23.86,0,0,0,1.91-2.84,21.81,21.81,0,0,0,3-10.33,13.56,13.56,0,1,0-27.11,0Z"/><path class="cls-1" d="M461.89,72.23a29.59,29.59,0,0,0-2.52,2c-4.15,3.6-6.62,7.86-6.62,11.86v.85a26.22,26.22,0,0,0,.64,6.86,15.93,15.93,0,0,0,1.11,3.06,14.09,14.09,0,0,0,1.79,2.76,13.61,13.61,0,0,0,.94,1.12c4.91,5,13.91,7.5,26.76,7.5s21.84-2.52,26.75-7.5a13.38,13.38,0,0,0,1.21-1.44,14.57,14.57,0,0,0,1.67-2.8,16,16,0,0,0,1.06-3.07,26.76,26.76,0,0,0,.54-6.49v-.85c0-3.8-2.25-7.85-6-11.33a28.63,28.63,0,0,0-2.51-2c-.87-.64-1.79-1.25-2.77-1.83A35.68,35.68,0,0,0,500.22,69c-4.33,5.16-10,8.71-16.24,8.71S472.06,74.17,467.73,69c-1,.46-2,.95-3,1.48A33.05,33.05,0,0,0,461.89,72.23Z"/><path class="cls-1" d="M472.15,64a26.41,26.41,0,0,0,2.41,2.72c2.82,2.72,6.08,4.49,9.42,4.49s6.59-1.77,9.41-4.49A27.65,27.65,0,0,0,495.8,64a29.72,29.72,0,0,0,1.94-2.81A28.53,28.53,0,0,0,502.05,47a18.08,18.08,0,0,0-36.15,0,28.53,28.53,0,0,0,4.31,14.15A28,28,0,0,0,472.15,64Z"/><rect class="cls-1" x="420.34" y="130.5" width="128.17" height="8.16"/><rect class="cls-1" x="420.34" y="1.07" width="128.17" height="8.16"/><path class="cls-1" d="M100.3,5.09A14.3,14.3,0,0,0,88.16,11.9a10.26,10.26,0,0,0-16.9-3.82,10.26,10.26,0,0,0-17.47,6.5,14.3,14.3,0,0,0-26.23-1.64A13.3,13.3,0,0,0,2.12,18.42V33.75H8.24V18.42a7.21,7.21,0,1,1,14.41,0V33.75h6.12v-6a14.27,14.27,0,0,0,24.5-2.17l.27-.58L48,22.38l-.28.58a8.21,8.21,0,0,1-14.62.41l20.58-2.48V33.75h6.12V15.4a4.19,4.19,0,1,1,8.38,0V33.75h6.11V15.4a4.19,4.19,0,1,1,8.38,0V33.75h6.11V27.9a14.24,14.24,0,0,0,19.71,3.25v2.6h6.11V19.42A14.34,14.34,0,0,0,100.3,5.09ZM32.4,17.3a8.22,8.22,0,0,1,15.14-1.83Zm67.9,10.34a8.22,8.22,0,1,1,8.22-8.22A8.22,8.22,0,0,1,100.3,27.64Z"/><path class="cls-1" d="M11,117.85a18.06,18.06,0,0,0,7.63,6.59,22.68,22.68,0,0,0,9.57,2.13,19.58,19.58,0,0,0,5.62-.86,17.44,17.44,0,0,0,5.22-2.58,14.21,14.21,0,0,0,3.84-4.25A11.3,11.3,0,0,0,44.41,113c0-3.14-1-5.53-3-7.17a26,26,0,0,0-7.4-4.13q-4.41-1.67-9.63-3.21a38.8,38.8,0,0,1-9.63-4.3,23.51,23.51,0,0,1-7.4-7.39q-3-4.65-3-12.56a21.67,21.67,0,0,1,6.42-14.91,27,27,0,0,1,8.55-5.56,31.75,31.75,0,0,1,12.55-2.23,43.93,43.93,0,0,1,12.73,1.83A22,22,0,0,1,55.3,60.86L46.36,69a14.9,14.9,0,0,0-5.85-5.16,18.5,18.5,0,0,0-8.6-2,20.85,20.85,0,0,0-7.62,1.2,13.66,13.66,0,0,0-4.88,3.1,11,11,0,0,0-2.58,4.07,12.36,12.36,0,0,0-.74,4q0,5.16,3,7.91a22.86,22.86,0,0,0,7.39,4.47,89.64,89.64,0,0,0,9.64,3.1,41.74,41.74,0,0,1,9.63,3.84,22.49,22.49,0,0,1,7.39,6.65q3,4.19,3,11.52a24.25,24.25,0,0,1-2.23,10.55,23.41,23.41,0,0,1-6,7.92,26.58,26.58,0,0,1-9,4.92,34.44,34.44,0,0,1-11,1.72,39.9,39.9,0,0,1-14.79-2.75A24.27,24.27,0,0,1,2,125.65Z"/><path class="cls-1" d="M86.49,64H60.35V53.64h63.29V64H97.5v70.86h-11Z"/><path class="cls-1" d="M147.37,53.64h10l34.74,81.18H179.25l-8.14-20.06H132.47l-8,20.06H111.6Zm19.72,51.48L152,67.86h-.23l-15.36,37.26Z"/><path class="cls-1" d="M199.77,53.64h28.55a33.43,33.43,0,0,1,12.84,2.12,21.85,21.85,0,0,1,8,5.39,18.33,18.33,0,0,1,4.07,7.34,28.69,28.69,0,0,1,1.15,7.85A21.13,21.13,0,0,1,253,83.86a21.36,21.36,0,0,1-4,6.53,22.56,22.56,0,0,1-6.31,4.93,21.94,21.94,0,0,1-8.31,2.47l23,37H243.69L223.05,99.05H210.78v35.77h-11Zm11,35.78h14.45a39.74,39.74,0,0,0,6.36-.52A17,17,0,0,0,237.21,87a10.36,10.36,0,0,0,3.95-4,13.23,13.23,0,0,0,1.5-6.71,13.22,13.22,0,0,0-1.5-6.7,10.36,10.36,0,0,0-3.95-4,17,17,0,0,0-5.62-1.89,39.74,39.74,0,0,0-6.36-.52H210.78Z"/><path class="cls-1" d="M258.71,53.64h12.72l23.85,66.05h.23l24.77-66h12l-32,81.18H290Z"/></svg>